<svg version="1.1" xmlns="http://www.w3.org/2000/svg">
  <symbol id="colour" viewBox="0 0 91 113.75">
    <path d="M67.423,37.444c0.053-0.598,0.092-1.199,0.092-1.81c0-11.287-9.184-20.47-20.471-20.47s-20.471,9.183-20.471,20.47   c0,0.429,0.037,0.848,0.064,1.269c-5.926,3.592-9.906,10.082-9.906,17.5c0,11.289,9.184,20.475,20.471,20.475   c3.385,0,6.57-0.84,9.385-2.299c2.814,1.459,6.002,2.299,9.385,2.299c11.289,0,20.473-9.186,20.473-20.475   C76.444,47.354,72.862,41.128,67.423,37.444z M47.044,18.565c9.412,0,17.068,7.656,17.07,17.067   c-2.498-1.087-5.248-1.698-8.143-1.698c-3.383,0-6.57,0.839-9.385,2.299c-2.814-1.46-6-2.299-9.385-2.299   c-2.541,0-4.965,0.486-7.211,1.336C30.188,26.027,37.755,18.565,47.044,18.565z M46.587,40.161   c3.779,2.498,6.504,6.455,7.377,11.063c-2.117,0.945-4.455,1.48-6.92,1.48c-2.793,0-5.426-0.688-7.756-1.883   C40.239,46.384,42.919,42.587,46.587,40.161z M36.284,48.87c-3.063-2.494-5.24-6.027-6.002-10.057   c2.117-0.943,4.455-1.479,6.92-1.479c2.109,0,4.123,0.402,5.99,1.105C39.903,41.077,37.456,44.706,36.284,48.87z M49.983,38.44   c1.867-0.703,3.879-1.105,5.988-1.105c2.795,0,5.426,0.688,7.756,1.883c-0.896,4.184-3.338,7.791-6.689,10.225   C55.937,45.04,53.421,41.198,49.983,38.44z M37.202,71.478c-9.412,0-17.07-7.66-17.07-17.074c0-5.678,2.797-10.701,7.074-13.807   c1.242,4.955,4.271,9.209,8.389,11.998c-0.053,0.598-0.092,1.197-0.092,1.809c0,6.455,3.008,12.213,7.689,15.967   C41.325,71.073,39.312,71.478,37.202,71.478z M46.587,68.649c-4.623-3.057-7.684-8.297-7.684-14.244   c2.498,1.088,5.248,1.699,8.141,1.699c2.541,0,4.963-0.486,7.209-1.336C54.13,60.563,51.116,65.655,46.587,68.649z M55.972,71.478   c-2.109,0-4.123-0.404-5.988-1.107c4.68-3.754,7.689-9.512,7.689-15.967c0-0.428-0.039-0.848-0.064-1.27   c4.391-2.66,7.703-6.914,9.125-11.965c3.846,3.133,6.311,7.9,6.311,13.234C73.044,63.817,65.386,71.478,55.972,71.478z"/>
  </symbol>

  <symbol id="smell" viewBox="0 0 100 125">
<path d="M65.309,55.552c-0.431-3.482-2.901-5.382-4.09-6.106l-3.949-12.619c-0.248-0.791-1.089-1.229-1.88-0.983  c-0.791,0.248-1.231,1.089-0.983,1.88l4.129,13.193c0.128,0.408,0.424,0.743,0.814,0.919c0.026,0.012,2.627,1.218,2.978,4.048  c0.238,2.415-0.826,3.513-1.761,4.01c-0.919,0.487-1.96,0.521-2.717,0.292c0.097-0.405,0.133-0.837,0.084-1.29  c-0.09-0.824-0.834-1.416-1.654-1.329c-0.824,0.09-1.418,0.831-1.329,1.654c0.062,0.568-0.48,0.935-0.485,0.938  c-0.022,0.013-0.041,0.031-0.062,0.045c-1.001,0.444-2.641,1.021-4.404,1.021s-3.402-0.577-4.401-1.02  c-0.022-0.015-0.04-0.033-0.063-0.046c-0.005-0.003-0.548-0.371-0.486-0.938c0.09-0.823-0.505-1.564-1.329-1.654  c-0.815-0.09-1.563,0.504-1.654,1.329c-0.049,0.452-0.013,0.885,0.084,1.29c-0.757,0.229-1.798,0.195-2.716-0.292  c-0.935-0.497-1.999-1.595-1.763-3.974c0.348-2.821,2.882-4.038,2.981-4.084c0.39-0.176,0.687-0.511,0.814-0.919l4.129-13.193  c0.248-0.791-0.193-1.632-0.983-1.88c-0.793-0.246-1.633,0.193-1.88,0.983l-3.949,12.62c-1.19,0.726-3.661,2.631-4.093,6.142  c-0.31,3.128,0.906,5.663,3.336,6.954c1.861,0.99,4.164,1.027,5.858,0.176c1.192,0.58,3.507,1.507,6.114,1.507  c2.608,0,4.924-0.927,6.117-1.507c1.695,0.851,3.997,0.813,5.857-0.175C64.404,61.251,65.622,58.717,65.309,55.552z"/>
  </symbol>

  <symbol id="pairing" viewBox="0 0 100 125">
<path d="M76.7,50.8c0-3.6-2.9-6.5-6.5-6.5c-0.3,0-0.7,0-1,0.1L66.2,30c3-0.6,5.2-3.2,5.2-6.4c0-3.6-2.9-6.5-6.5-6.5  s-6.5,2.9-6.5,6.5c0,0.4,0,0.7,0.1,1.1l-27,4.3c-0.8-2.7-3.3-4.7-6.2-4.7c-3.6,0-6.5,2.9-6.5,6.5c0,3.2,2.3,5.8,5.3,6.4l-2.7,24.2  c0,0-0.1,0-0.1,0c-3.6,0-6.5,2.9-6.5,6.5s2.9,6.5,6.5,6.5c2.5,0,4.7-1.4,5.8-3.6l21.4,5.7c0,0.3-0.1,0.6-0.1,0.9  c0,3.6,2.9,6.5,6.5,6.5s6.5-2.9,6.5-6.5c0-2.3-1.2-4.2-2.9-5.4l9-15.3c0.9,0.4,1.8,0.7,2.8,0.7C73.8,57.3,76.7,54.4,76.7,50.8z   M75.7,50.8c0,3-2.5,5.5-5.5,5.5s-5.5-2.5-5.5-5.5s2.5-5.5,5.5-5.5S75.7,47.8,75.7,50.8z M54.4,70.9c-0.8,0.1-1.6,0.3-2.3,0.6  L44.8,60l12.3-4.1L54.4,70.9z M44.2,59.1L39,50.9l9.2-9.3l10.7,4.8l-1.5,8.4L44.2,59.1z M26.3,63.8l12-12.2l5,7.8l-16.3,5.4  C26.7,64.5,26.5,64.1,26.3,63.8z M31,33.8l16.2,7.3l-8.8,8.9l-9.1-14.2C30,35.3,30.6,34.6,31,33.8z M60.9,28.7  c0.3,0.3,0.7,0.5,1,0.7l-2.9,16l-10.1-4.6L60.9,28.7z M59.8,46.9l4.3,1.9c-0.2,0.6-0.3,1.3-0.3,2.1c0,0.6,0.1,1.2,0.3,1.8l-5.6,1.8  L59.8,46.9z M68.2,44.7c-1.6,0.5-3,1.7-3.8,3.2l-4.5-2l2.9-16c0.7,0.2,1.3,0.3,2.1,0.3c0.1,0,0.2,0,0.3,0L68.2,44.7z M64.9,18.2  c3,0,5.5,2.5,5.5,5.5s-2.5,5.5-5.5,5.5s-5.5-2.5-5.5-5.5S61.9,18.2,64.9,18.2z M58.7,25.7c0.3,0.9,0.8,1.7,1.4,2.3L47.9,40.4  l-16.6-7.5c0.2-0.7,0.4-1.4,0.4-2.1c0-0.3,0-0.6-0.1-0.8L58.7,25.7z M19.8,30.8c0-3,2.5-5.5,5.5-5.5s5.5,2.5,5.5,5.5  s-2.5,5.5-5.5,5.5c-0.2,0-0.4,0-0.6,0l0,0l0,0C21.9,35.9,19.8,33.6,19.8,30.8z M25,37.3c0.1,0,0.2,0,0.2,0c1.2,0,2.3-0.3,3.3-0.9  l9.2,14.4L25.6,63.1c-0.9-0.8-2-1.4-3.3-1.6L25,37.3z M21.2,73.3c-3,0-5.5-2.5-5.5-5.5s2.5-5.5,5.5-5.5s5.5,2.5,5.5,5.5  S24.2,73.3,21.2,73.3z M27.3,69.8c0.2-0.6,0.3-1.3,0.3-2c0-0.7-0.1-1.4-0.3-2l16.5-5.4L51.2,72c-1.2,0.8-2.2,2.1-2.6,3.5L27.3,69.8z   M60.3,77.4c0,3-2.5,5.5-5.5,5.5s-5.5-2.5-5.5-5.5s2.5-5.5,5.5-5.5S60.3,74.3,60.3,77.4z M57.5,71.5c-0.7-0.3-1.4-0.5-2.1-0.6  l2.8-15.3l6.1-2c0.5,1.1,1.3,2,2.2,2.6L57.5,71.5z"/>
  </symbol>

  <symbol id="price" viewBox="0 0 100 125">
    <path d="M87.34,29.2l-16.5-6.98c-1.49-0.44-3.84-0.19-5.2,0.54L13.48,51.05c-1.37,0.74-1.88,2.48-1.14,3.84   L26.8,81.56c0.74,1.36,2.48,1.881,3.84,1.141L82.8,54.41c1.36-0.74,2.851-2.57,3.29-4.06l3.16-17.64   C89.69,31.22,88.83,29.64,87.34,29.2z M81.05,40c-2.189,1.19-4.91,0.38-6.1-1.81c-1.19-2.19-0.38-4.91,1.81-6.1   c2.19-1.19,4.91-0.38,6.101,1.81C84.05,36.09,83.24,38.81,81.05,40z"/>
  </symbol>

  <symbol id="taste" viewBox="0 0 100 125">
    <g><path fill-rule="evenodd" clip-rule="evenodd" fill="none" d="M50.11,74.509c1.115,0.072,2.425-0.106,3.731-0.239   c2.277-0.229,4.534-0.603,6.778-1.054c5.852-1.174,11.575-2.792,17.144-4.945c3.749-1.449,7.397-3.109,10.838-5.203   c2.608-1.586,5.061-3.372,7.136-5.636c0.937-1.022,1.766-2.121,2.416-3.345c0.774-1.458,1.255-3.004,1.32-4.665   c0.078-1.967-0.45-3.785-1.39-5.491c-0.669-1.213-1.508-2.306-2.454-3.319c-1.486-1.588-3.163-2.949-4.955-4.171   c-3.042-2.074-6.294-3.763-9.666-5.224c-5.276-2.287-10.728-4.052-16.307-5.435c-1.906-0.473-3.787-0.391-5.656,0.189   c-1.571,0.487-3.003,1.26-4.394,2.117c-1.12,0.691-2.225,1.412-3.356,2.084c-1.165,0.69-1.42,0.702-2.615,0.07   c-0.996-0.527-1.959-1.119-2.938-1.681c-1.195-0.687-2.397-1.362-3.678-1.889c-2.571-1.06-5.188-1.337-7.907-0.605   c-4.544,1.223-9.023,2.642-13.384,4.419c-3.665,1.493-7.23,3.184-10.572,5.315c-2.148,1.37-4.161,2.911-5.904,4.783   c-1.096,1.178-2.049,2.456-2.726,3.923c-1.509,3.274-1.386,6.504,0.321,9.667c0.947,1.755,2.212,3.269,3.68,4.611   c1.229,1.122,2.543,2.136,3.922,3.071c2.786,1.89,5.758,3.438,8.829,4.801c4.91,2.181,9.993,3.87,15.188,5.226   c3.609,0.942,7.261,1.707,10.961,2.196C46.274,74.317,48.082,74.519,50.11,74.509z"/><path fill-rule="evenodd" clip-rule="evenodd" d="M50.11,74.509c-2.028,0.01-3.836-0.192-5.638-0.431   c-3.7-0.49-7.352-1.254-10.961-2.196c-5.195-1.356-10.278-3.045-15.188-5.226c-3.071-1.363-6.043-2.911-8.829-4.801   c-1.379-0.935-2.692-1.95-3.922-3.071c-1.468-1.342-2.732-2.856-3.68-4.611c-1.707-3.163-1.83-6.393-0.321-9.667   c0.677-1.467,1.63-2.746,2.726-3.923c1.743-1.872,3.756-3.413,5.904-4.783c3.342-2.131,6.907-3.822,10.572-5.315   c4.36-1.777,8.84-3.196,13.384-4.419c2.719-0.731,5.336-0.454,7.907,0.605c1.28,0.527,2.482,1.202,3.678,1.889   c0.979,0.562,1.942,1.154,2.938,1.681c1.194,0.631,1.45,0.62,2.615-0.07c1.132-0.672,2.236-1.393,3.356-2.084   c1.391-0.857,2.822-1.63,4.394-2.117c1.869-0.581,3.75-0.662,5.656-0.189c5.579,1.383,11.03,3.148,16.307,5.435   c3.372,1.461,6.624,3.15,9.666,5.224c1.792,1.222,3.469,2.583,4.955,4.171c0.946,1.013,1.785,2.105,2.454,3.319   c0.939,1.706,1.468,3.524,1.39,5.491c-0.065,1.661-0.546,3.208-1.32,4.665c-0.65,1.225-1.479,2.323-2.416,3.345   c-2.075,2.265-4.527,4.05-7.136,5.636c-3.44,2.094-7.089,3.754-10.838,5.203c-5.568,2.153-11.292,3.771-17.144,4.945   c-2.244,0.451-4.501,0.824-6.778,1.054C52.535,74.403,51.225,74.582,50.11,74.509z M49.083,48.811   c1.588-0.013,2.933-0.044,4.28-0.094c3.133-0.116,6.27-0.047,9.401-0.214c2.597-0.139,5.199-0.172,7.8-0.253   c0.125-0.004,0.25-0.013,0.376-0.021c1.97-0.112,3.941-0.223,5.91-0.338c1.189-0.07,2.379-0.132,3.566-0.226   c1.966-0.156,3.933-0.324,5.897-0.505c1.996-0.186,3.989-0.395,5.985-0.595c0.091-0.01,0.186-0.032,0.27-0.068   c0.131-0.057,0.185-0.179,0.144-0.308c-0.105-0.336-0.341-0.595-0.551-0.868c-1.161-1.509-2.63-2.685-4.166-3.775   c-2.773-1.968-5.782-3.512-8.886-4.887c-5.118-2.268-10.431-3.949-15.854-5.3c-0.685-0.17-1.361-0.153-2.047,0.007   c-1.053,0.247-2.005,0.722-2.924,1.265c-0.998,0.591-1.97,1.224-2.955,1.836c-0.933,0.579-1.881,1.127-2.908,1.532   c-1.586,0.628-3.174,0.658-4.773,0.063c-0.794-0.296-1.568-0.634-2.304-1.061c-1.219-0.71-2.44-1.415-3.662-2.123   c-0.762-0.441-1.563-0.795-2.392-1.093c-1.184-0.426-2.375-0.489-3.602-0.164c-2.183,0.576-4.354,1.189-6.499,1.894   c-4.205,1.382-8.312,3.005-12.238,5.063c-1.808,0.946-3.557,1.99-5.211,3.187c-1.146,0.828-2.246,1.71-3.203,2.756   c-0.253,0.276-0.485,0.573-0.708,0.876c-0.133,0.183-0.046,0.373,0.188,0.41c1.238,0.194,2.473,0.409,3.716,0.562   c2.644,0.328,5.289,0.625,7.935,0.925c0.777,0.089,1.559,0.154,2.34,0.218c1.093,0.086,2.187,0.158,3.281,0.24   c2.186,0.166,4.37,0.363,6.559,0.492c2.657,0.157,5.32,0.291,7.98,0.375C42.993,48.716,46.159,48.752,49.083,48.811z    M92.344,52.528c-0.204-0.153-0.328-0.115-0.451-0.104c-0.999,0.097-1.996,0.191-2.994,0.287c-0.81,0.078-1.62,0.158-2.431,0.232   c-1.123,0.102-2.246,0.215-3.369,0.297c-1.282,0.094-2.566,0.141-3.846,0.241c-2.03,0.16-4.062,0.31-6.098,0.352   c-0.157,0.003-0.315-0.001-0.469,0.021c-1.808,0.251-3.632,0.125-5.445,0.282c-1.745,0.151-3.506,0.091-5.26,0.186   c-2.628,0.143-5.264,0.03-7.894,0.19c-1.22,0.074-2.446,0.031-3.667,0.037c-2.789,0.014-5.578-0.007-8.365-0.146   c-1.221-0.061-2.445-0.031-3.667-0.084c-1.908-0.082-3.815-0.203-5.724-0.303c-1.564-0.083-3.134-0.115-4.691-0.258   c-0.969-0.089-1.94-0.104-2.907-0.198c-1.122-0.11-2.245-0.204-3.369-0.304c-0.936-0.082-1.874-0.149-2.808-0.248   c-1.464-0.154-2.928-0.317-4.389-0.498c-1.803-0.222-3.603-0.464-5.403-0.702c-0.497-0.065-0.99-0.146-1.488-0.214   c-0.123-0.017-0.268-0.032-0.352,0.076c-0.117,0.15-0.018,0.296,0.063,0.428c0.096,0.16,0.205,0.315,0.314,0.467   c0.766,1.044,1.693,1.933,2.694,2.744c2.207,1.782,4.64,3.208,7.161,4.483c3.11,1.571,6.325,2.9,9.611,4.054   c5.748,2.02,11.608,3.604,17.647,4.478c1.522,0.219,3.055,0.324,4.585,0.431c1.381,0.097,2.758-0.077,4.125-0.212   c2.746-0.273,5.457-0.78,8.146-1.402c4.28-0.992,8.484-2.237,12.603-3.772c3.822-1.426,7.556-3.051,11.095-5.098   c1.877-1.085,3.66-2.303,5.282-3.748C91.239,53.941,91.831,53.302,92.344,52.528z"/></g>
  </symbol>

  <symbol id="sunny" viewBox="0 0 100 125">
    <g><path fill="none" stroke="#000000" stroke-width="3" stroke-linecap="round" stroke-linejoin="round" stroke-miterlimit="10" d="   M50.603,65.517c-8.587,0-15.574-6.987-15.574-15.574s6.987-15.574,15.574-15.574c8.588,0,15.574,6.987,15.574,15.574   S59.19,65.517,50.603,65.517z"/><circle fill="none" stroke="#000000" stroke-width="3" stroke-linecap="round" stroke-linejoin="round" stroke-miterlimit="10" cx="50.603" cy="49.943" r="11.725"/><line fill="none" stroke="#000000" stroke-width="3" stroke-linecap="round" stroke-linejoin="round" stroke-miterlimit="10" x1="50.603" y1="17.812" x2="50.603" y2="24.239"/><line fill="none" stroke="#000000" stroke-width="3" stroke-linecap="round" stroke-linejoin="round" stroke-miterlimit="10" x1="27.882" y1="27.223" x2="32.424" y2="31.769"/><line fill="none" stroke="#000000" stroke-width="3" stroke-linecap="round" stroke-linejoin="round" stroke-miterlimit="10" x1="18.472" y1="49.943" x2="24.898" y2="49.943"/><line fill="none" stroke="#000000" stroke-width="3" stroke-linecap="round" stroke-linejoin="round" stroke-miterlimit="10" x1="27.882" y1="72.663" x2="32.427" y2="68.119"/><line fill="none" stroke="#000000" stroke-width="3" stroke-linecap="round" stroke-linejoin="round" stroke-miterlimit="10" x1="50.603" y1="82.075" x2="50.603" y2="75.646"/><line fill="none" stroke="#000000" stroke-width="3" stroke-linecap="round" stroke-linejoin="round" stroke-miterlimit="10" x1="73.321" y1="72.663" x2="68.776" y2="68.119"/><line fill="none" stroke="#000000" stroke-width="3" stroke-linecap="round" stroke-linejoin="round" stroke-miterlimit="10" x1="82.732" y1="49.944" x2="76.306" y2="49.944"/><line fill="none" stroke="#000000" stroke-width="3" stroke-linecap="round" stroke-linejoin="round" stroke-miterlimit="10" x1="73.321" y1="27.223" x2="68.776" y2="31.769"/></g>
  </symbol>

  <symbol id="cold" viewBox="0 0 300 375">
    <g stroke="none" stroke-width="1" fill="none" fill-rule="evenodd"><g stroke="#000000" stroke-width="5"><path d="M148.586885,244.673771 C200.273495,244.673771 242.173771,202.773495 242.173771,151.086885 C242.173771,99.4002758 200.273495,57.5 148.586885,57.5 C96.9002758,57.5 55,99.4002758 55,151.086885 C55,202.773495 96.9002758,244.673771 148.586885,244.673771 Z"/><path d="M149,84.7965202 L149,221.776547" stroke-linecap="square"/><path d="M196.724999,105.275 L99.7849613,202.240747" stroke-linecap="square"/><path d="M100.049284,104.954857 L197.078591,201.814363" stroke-linecap="square"/><path d="M217.507911,153 L80.2877484,153" stroke-linecap="square"/><path d="M148.843792,138.779857 L136.723338,126.56276 L137.667129,143.378035 L119.189015,142.519177 L132.922375,153.802067 L119.189015,165.084957 L137.667129,164.226098 L136.723338,181.041373 L149.121977,168.543873 L161.520616,181.041373 L160.576826,164.226098 L179.05494,165.084957 L169.7,156.450001 L165.612206,152.995554 L179.22393,141.812596 L160.745816,142.671455 L161.689606,125.85618 L148.843792,138.779857 Z"/><path d="M136.783795,86.3516059 L148.218809,97.7666082" stroke-linecap="square"/><path d="M161.955689,86.2218214 L150.520676,97.6368237" stroke-linecap="square"/><path d="M181.365593,99.6640123 L192.800607,111.079015" stroke-linecap="square" transform="translate(187.083100, 105.371513) rotate(47.000000) translate(-187.083100, -105.371513) "/><path d="M190.177288,120.847454 L201.612302,109.432452" stroke-linecap="square" transform="translate(195.894795, 115.139953) rotate(47.000000) translate(-195.894795, -115.139953) "/><path d="M104.405632,99.4616189 L115.840645,110.876621" stroke-linecap="square" transform="translate(110.123138, 105.169120) scale(-1, 1) rotate(47.000000) translate(-110.123138, -105.169120) "/><path d="M95.5939367,120.64506 L107.02895,109.230058" stroke-linecap="square" transform="translate(101.311443, 114.937559) scale(-1, 1) rotate(47.000000) translate(-101.311443, -114.937559) "/><path d="M170.357926,111.445639 L181.79294,122.860641" stroke-linecap="square" transform="translate(176.075433, 117.153140) rotate(47.000000) translate(-176.075433, -117.153140) "/><path d="M179.169621,132.62908 L190.604635,121.214078" stroke-linecap="square" transform="translate(184.887128, 126.921579) rotate(47.000000) translate(-184.887128, -126.921579) "/><path d="M104.405632,99.4616189 L115.840645,110.876621" stroke-linecap="square" transform="translate(110.123138, 105.169120) scale(-1, 1) rotate(47.000000) translate(-110.123138, -105.169120) "/><path d="M95.5939367,120.64506 L107.02895,109.230058" stroke-linecap="square" transform="translate(101.311443, 114.937559) scale(-1, 1) rotate(47.000000) translate(-101.311443, -114.937559) "/><path d="M104.789155,195.626796 L116.224169,207.041799" stroke-linecap="square" transform="translate(110.506662, 201.334297) scale(-1, -1) rotate(47.000000) translate(-110.506662, -201.334297) "/><path d="M95.9774605,197.273359 L107.412474,185.858357" stroke-linecap="square" transform="translate(101.694967, 191.565858) scale(-1, -1) rotate(47.000000) translate(-101.694967, -191.565858) "/><path d="M116.296161,183.232012 L127.731175,194.647015" stroke-linecap="square" transform="translate(122.013668, 188.939514) scale(-1, -1) rotate(47.000000) translate(-122.013668, -188.939514) "/><path d="M107.484466,184.878575 L118.91948,173.463573" stroke-linecap="square" transform="translate(113.201973, 179.171074) scale(-1, -1) rotate(47.000000) translate(-113.201973, -179.171074) "/><path d="M181.16243,196.32946 L192.597444,207.744462" stroke-linecap="square" transform="translate(186.879937, 202.036961) scale(1, -1) rotate(47.000000) translate(-186.879937, -202.036961) "/><path d="M189.974125,197.976023 L201.409138,186.561021" stroke-linecap="square" transform="translate(195.691632, 192.268522) scale(1, -1) rotate(47.000000) translate(-195.691632, -192.268522) "/><path d="M168.431817,183.008849 L179.86683,194.423851" stroke-linecap="square" transform="translate(174.149324, 188.716350) scale(1, -1) rotate(47.000000) translate(-174.149324, -188.716350) "/><path d="M177.243512,184.655412 L188.678525,173.240409" stroke-linecap="square" transform="translate(182.961018, 178.947911) scale(1, -1) rotate(47.000000) translate(-182.961018, -178.947911) "/><path d="M116.296161,111.082525 L127.731175,122.497527" stroke-linecap="square" transform="translate(122.013668, 116.790026) scale(-1, 1) rotate(47.000000) translate(-122.013668, -116.790026) "/><path d="M107.484466,132.265966 L118.91948,120.850964" stroke-linecap="square" transform="translate(113.201973, 126.558465) scale(-1, 1) rotate(47.000000) translate(-113.201973, -126.558465) "/><path d="M136.783795,105.37661 L148.218809,116.791612" stroke-linecap="square"/><path d="M162.02274,105.145882 L150.587726,116.560884" stroke-linecap="square"/><path d="M204.048908,153.599289 L215.483921,165.014291" stroke-linecap="square" transform="translate(209.766414, 159.306790) scale(-1, 1) rotate(-89.000000) translate(-209.766414, -159.306790) "/><path d="M203.589886,151.877059 L215.0249,140.462056" stroke-linecap="square" transform="translate(209.307393, 146.169558) scale(-1, 1) rotate(-89.000000) translate(-209.307393, -146.169558) "/><path d="M185.741773,154.064503 L197.176786,165.479505" stroke-linecap="square" transform="translate(191.459280, 159.772004) scale(-1, 1) rotate(-89.000000) translate(-191.459280, -159.772004) "/><path d="M185.282752,152.342272 L196.717765,140.92727" stroke-linecap="square" transform="translate(191.000258, 146.634771) scale(-1, 1) rotate(-89.000000) translate(-191.000258, -146.634771) "/><path d="M82.4715697,140.850498 L93.9065833,152.2655" stroke-linecap="square" transform="translate(88.189077, 146.557999) scale(1, -1) rotate(-89.000000) translate(-88.189077, -146.557999) "/><path d="M82.9305909,165.402733 L94.3656045,153.987731" stroke-linecap="square" transform="translate(88.648098, 159.695232) scale(1, -1) rotate(-89.000000) translate(-88.648098, -159.695232) "/><path d="M101.067168,140.850498 L112.502182,152.2655" stroke-linecap="square" transform="translate(106.784675, 146.557999) scale(1, -1) rotate(-89.000000) translate(-106.784675, -146.557999) "/><path d="M101.52619,165.402733 L112.961203,153.987731" stroke-linecap="square" transform="translate(107.243696, 159.695232) scale(1, -1) rotate(-89.000000) translate(-107.243696, -159.695232) "/><path d="M136.783795,208.23542 L148.218809,219.650422" stroke-linecap="square" transform="translate(142.501302, 213.942921) scale(1, -1) translate(-142.501302, -213.942921) "/><path d="M149.950065,219.42155 L161.385079,208.006548" stroke-linecap="square" transform="translate(155.667572, 213.714049) scale(1, -1) translate(-155.667572, -213.714049) "/><path d="M136.783795,193.015417 L148.218809,204.430419" stroke-linecap="square" transform="translate(142.501302, 198.722918) scale(1, -1) translate(-142.501302, -198.722918) "/><path d="M149.950065,204.201547 L161.385079,192.786545" stroke-linecap="square" transform="translate(155.667572, 198.494046) scale(1, -1) translate(-155.667572, -198.494046) "/></g></g>
  </symbol>


</svg>
